<svg width="887" height="700" viewBox="0 0 887 700" fill="none" xmlns="http://www.w3.org/2000/svg">
<path d="M595.525 656.108C580.536 665.965 595.694 674.758 614.626 668.231C624.828 664.715 634.609 661.241 645.05 658.887C648.422 658.127 668.826 654.164 668.828 650.043C668.835 639.125 645.84 641.702 631.377 643.523C619.719 644.989 607.883 647.981 595.525 656.108ZM263.865 662.134C261.459 662.567 258.584 663.502 258.235 665.666C257.949 667.454 259.626 668.982 261.244 670.067C274.525 678.972 292.396 679.542 309.021 679.75C310.962 679.772 312.971 679.787 314.757 679.111C318.314 677.764 320.022 673.554 318.364 670.446C317.761 669.312 316.805 668.357 315.801 667.476C302.444 655.79 280.486 659.137 263.865 662.134ZM15.1677 425.942C11.0985 429.163 14.7682 438.592 15.9699 444.815C16.3294 446.681 16.8099 448.61 18.1225 450.1C19.9158 452.139 22.8925 452.974 25.6847 453.703C30.6384 454.993 36.6408 456.089 40.4232 452.963C43.2295 450.642 43.6269 446.86 43.6217 443.451C43.6174 440.337 43.4307 437.224 43.0624 434.127C42.886 432.64 42.6476 431.105 41.7614 429.835C40.6297 428.212 38.6133 427.264 36.6378 426.512C29.5526 423.816 19.2368 422.72 15.1677 425.942ZM837.286 253.948C837.665 256.921 839.705 259.488 841.682 261.909C845.491 266.577 849.357 271.302 854.384 274.945C856.511 276.487 858.984 277.864 861.725 277.95C864.223 278.027 866.612 277.012 868.636 275.707C873.568 272.53 876.895 267.455 877.576 262.07C878.511 254.683 874.686 247.491 870.241 241.199C867.488 237.301 864.275 233.417 859.668 231.328C851.941 227.825 846.833 230.883 844.675 237.033C842.689 242.692 836.483 247.646 837.286 253.948ZM735.93 73.9684C738.123 74.6496 740.528 74.0221 742.736 73.3778C744.151 72.965 745.889 72.0557 745.508 70.7721C745.325 70.1546 744.68 69.7435 744.047 69.4415C741.14 68.0438 737.373 67.0136 734.451 68.8005C731.531 70.5875 733.734 73.2888 735.93 73.9684ZM693.478 65.5269C700.142 70.475 708.635 73.4349 717.3 73.8343C719.613 73.9416 722.134 73.809 723.918 72.4936C726.125 70.8626 726.362 67.5321 724.404 65.6646C723.174 64.4901 721.378 63.9632 719.709 63.3541C716.858 62.3138 714.067 60.8238 712.454 58.4899C711.986 57.812 711.582 57.0351 710.806 56.6408C705.982 54.2045 684.709 59.0184 693.478 65.5269ZM440.379 24.781C432.715 24.781 426.503 29.0597 426.503 34.3366C426.503 39.6136 432.732 43.4375 440.379 43.8922C465.301 45.3721 465.301 36.3165 465.301 31.0378C465.301 22.6081 448.044 24.781 440.379 24.781ZM186.156 86.4301C215.316 88.1852 227.516 70.3022 241.217 47.3184C278.727 -15.606 362.261 -9.54201 390.28 29.2039C410.127 56.6492 452.93 51.0048 487.55 40.2629C521.628 29.6905 579.686 19.5342 625.93 32.167C666.321 43.2026 682.895 83.0106 719.714 80.5626C800.035 75.2202 840.527 146.492 825.982 177.575C816.486 197.862 811.77 220.558 819.491 241.434C827.995 264.426 847.415 282.628 863.114 302.394C878.81 322.159 891.454 346.868 883.651 370.055C876.973 389.899 857.054 403.624 844.688 421.17C806.291 475.66 844.274 559.163 793.111 604.582C756.487 637.091 696.778 629.586 645.532 635.791C602.798 640.965 562.582 657.097 520.043 663.416C433.892 676.213 346.891 648.024 259.555 647.229C251.763 647.158 243.931 647.303 236.098 647.448C213.013 647.876 189.905 648.303 167.656 643.211C127.902 634.113 94.0716 606.622 80.2782 572.206C61.246 524.711 79.2791 469.748 57.7776 423.1C40.2614 385.095 -2.57309 354.178 0.12151 313.169C1.79868 287.64 21.205 266.284 34.5522 243.637C54.3881 209.982 28.1241 76.9249 186.156 86.4301Z" fill="#E9E9E9"/>
<path d="M622.357 246.752C617.604 241.134 613.225 235.425 608.608 229.92C605.616 226.348 602.526 222.857 599.155 219.54C597.484 217.882 595.757 216.278 593.932 214.714C583.145 205.497 571.059 197.79 558.096 191.984C550.277 188.478 542.006 185.558 535.411 180.073C528.816 174.601 524.162 165.714 526.534 157.49C528.257 151.559 533.412 147.013 539.269 144.992C545.111 142.984 551.549 143.263 557.566 144.667C574.365 148.595 588.235 160.944 597.56 175.42C597.721 175.671 597.896 175.936 598.057 176.201C604.889 187.018 609.585 198.997 613.641 211.186C614.941 215.1 616.171 219.041 617.387 222.969C619.218 228.839 624.948 241.015 622.357 246.752" fill="#FFC22A"/>
<path d="M546.56 159.081C564.575 162.857 577.227 175.134 590.591 188.216C603.856 201.193 613.35 218.025 617.613 236.124C617.7 236.495 618.072 236.726 618.441 236.638C618.812 236.55 619.04 236.177 618.953 235.805C614.627 217.446 605.006 200.39 591.552 187.225C578.196 174.165 565.344 161.618 546.843 157.728C546.471 157.649 546.106 157.889 546.028 158.263C545.949 158.636 546.188 159.002 546.56 159.081Z" fill="#6E6E6E"/>
<path d="M641.443 164.122C639.767 171.012 635.499 176.915 631.728 182.914C629.738 186.074 627.877 189.324 626.133 192.621C620.552 203.167 616.234 214.398 613.316 225.979C612.354 229.774 611.79 233.505 612.439 237.389C603.421 235.152 600.273 209.242 599.794 201.547C598.955 187.693 601.552 173.56 607.447 160.987C610.022 155.467 613.313 150.063 618.3 146.588C623.273 143.115 630.255 141.986 635.402 145.183C638.505 147.109 640.458 150.25 641.376 153.801C642.272 157.115 642.249 160.794 641.443 164.122" fill="#FFC22A"/>
<path d="M609.879 228.879C608.108 224.28 607.331 217.891 607.46 210.751C607.711 196.38 611.607 178.956 617.91 166.615C620.742 161.066 624.707 155.937 630.117 152.962C630.455 152.776 630.576 152.356 630.387 152.023C630.196 151.69 629.768 151.57 629.431 151.758C623.672 154.929 619.565 160.297 616.656 165.995C610.231 178.594 606.319 196.133 606.056 210.726C605.93 217.981 606.698 224.502 608.565 229.367C608.703 229.725 609.107 229.904 609.471 229.77C609.833 229.635 610.017 229.237 609.879 228.879" fill="#6E6E6E"/>
<path d="M116.253 176.202C118.936 176.06 137.219 162.389 144.261 157.784C146.242 156.487 148.254 155.128 149.638 153.198C151.022 151.267 151.667 148.618 150.66 146.466C149.41 143.79 147.337 141.121 142.103 141.129C132.994 141.149 129.833 144.172 125.402 148.794C110.753 164.083 116.253 176.202 116.253 176.202" fill="#FFC22A"/>
<path d="M197.649 230.252C205.629 233.734 214.158 237.206 222.839 236.129C226.207 235.712 229.882 234.225 231.001 231.114C231.959 228.456 230.637 225.409 228.469 223.541C226.296 221.674 223.433 220.771 220.617 220.104C209.991 217.584 195.074 218.978 184.553 221.88C184.553 221.88 192.885 228.174 197.649 230.252" fill="#FFC22A"/>
<path d="M249.656 113.666C246.099 111.432 242.171 108.452 242.174 104.275C242.179 100.086 246.576 96.8923 250.794 96.8697C255.012 96.8497 258.927 99.136 262.095 101.899C275.512 113.593 273.841 126.933 273.841 126.933C273.841 126.933 253.616 116.148 249.656 113.666Z" fill="#FFC22A"/>
<path d="M260.477 78.0919C257.403 76.7506 254.224 75.1314 252.422 72.2694C251.541 70.875 251.043 69.1092 251.586 67.5481C252.492 64.9361 254.102 62.592 260.589 63.7868C281.125 67.5658 285.598 81.8381 285.598 81.8381C285.598 81.8381 265.931 80.4715 260.477 78.0919" fill="#FFC22A"/>
<path d="M320.672 109.396C328.954 108.678 337.506 104.527 342.727 98.0168C344.699 95.5586 346.504 92.8461 347.16 89.7583C347.818 86.6705 347.117 83.1293 344.742 81.0691C341.841 78.5555 337.241 78.9585 334.047 81.0792C330.853 83.1998 328.801 86.6604 327.139 90.1311C324.927 94.7527 320.672 109.396 320.672 109.396Z" fill="#FFC22A"/>
<path d="M174.001 409.511C153.937 391.879 133.873 374.25 113.81 356.62C103.113 347.228 92.3256 337.638 85.6996 325.392C80.7433 316.242 78.4976 306.125 78.4976 295.829C78.4906 276.537 86.4117 256.616 99.0543 241.558C118.475 218.407 147.053 204.639 175.898 194.607C204.746 184.563 234.908 177.494 262.655 164.106C271.375 159.895 280.144 154.646 287.376 148.056C294.605 141.469 300.304 133.512 302.753 123.937C303.572 120.73 303.97 117.43 303.97 114.132C303.97 105.559 301.276 96.9822 296.185 90.0357C289.133 80.421 277.712 74.2058 265.786 73.4895C265.094 73.4495 264.501 73.9737 264.461 74.6601C264.418 75.349 264.947 75.9406 265.635 75.9805C276.788 76.6395 287.581 82.5126 294.164 91.5084C298.924 98.0006 301.469 106.08 301.466 114.132C301.466 117.23 301.09 120.323 300.327 123.32C298.03 132.306 292.664 139.852 285.685 146.214C278.714 152.571 270.14 157.718 261.564 161.859C234.154 175.096 204.09 182.157 175.073 192.248C146.058 202.35 117.038 216.25 97.1334 239.958C84.1366 255.451 75.9993 275.856 75.9926 295.829C75.9926 306.485 78.3216 317.025 83.497 326.578C90.4153 339.34 101.463 349.09 112.154 358.492C132.217 376.122 152.282 393.751 172.346 411.383C172.864 411.84 173.655 411.79 174.113 411.273C174.57 410.754 174.52 409.965 174.001 409.511" fill="#6F6F6F"/>
<path d="M333.304 89.3843C330.747 97.4272 324.341 104.092 317.247 110.562C310.169 117.039 302.452 123.287 297.498 130.826C297.119 131.403 297.271 132.181 297.837 132.567C298.401 132.951 299.166 132.796 299.543 132.221C304.169 125.147 311.734 118.956 318.891 112.429C326.03 105.894 332.809 98.9931 335.642 90.1623C335.854 89.5023 335.499 88.7946 334.854 88.5813C334.207 88.3655 333.513 88.7268 333.304 89.3843" fill="#6F6F6F"/>
<path d="M257.544 109.854C261.815 114.432 266.746 118.107 270.217 122.839C273.636 127.482 275.609 133.536 275.607 139.662C275.602 146.626 273.092 153.648 267.34 158.975C266.835 159.445 266.798 160.242 267.256 160.759C267.717 161.273 268.499 161.311 269.007 160.844C275.315 155.008 278.087 147.237 278.083 139.662C278.08 132.989 275.956 126.438 272.198 121.326C268.412 116.203 263.387 112.485 259.342 108.119C258.871 107.615 258.089 107.592 257.594 108.071C257.096 108.55 257.074 109.347 257.544 109.854" fill="#6F6F6F"/>
<path d="M149.134 204.316C167.089 217.995 190.621 227.1 213.312 227.977C214.005 228.004 214.59 227.47 214.615 226.784C214.643 226.099 214.103 225.523 213.41 225.496C191.329 224.654 168.202 215.725 150.666 202.349C150.116 201.929 149.329 202.031 148.905 202.575C148.483 203.116 148.585 203.896 149.134 204.316" fill="#6F6F6F"/>
<path d="M423.079 557.577C429.314 551.89 438.194 549.321 447.573 547.265C456.941 545.195 466.749 543.642 474.808 539.591C475.425 539.28 475.682 538.53 475.385 537.913C475.089 537.298 474.348 537.05 473.735 537.36C466.191 541.173 456.545 542.752 447.083 544.827C437.633 546.916 428.311 549.503 421.443 555.734C420.93 556.2 420.883 556.99 421.334 557.497C421.787 558.008 422.569 558.042 423.079 557.577" fill="#6F6F6F"/>
<path d="M654.459 590.916C652.065 589.698 629.396 592.396 620.995 592.862C618.63 592.996 616.209 593.166 614.045 594.146C611.881 595.126 609.998 597.098 609.794 599.464C609.538 602.407 610 605.755 614.536 608.365C622.435 612.902 626.683 611.865 632.832 610.078C653.163 604.162 654.459 590.916 654.459 590.916" fill="#FFC22A"/>
<path d="M610.994 503.409C605.823 496.404 600.173 489.133 592.117 485.725C588.991 484.402 585.065 483.853 582.54 485.987C580.382 487.81 580.003 491.11 580.947 493.811C581.895 496.515 583.923 498.728 586.028 500.714C593.971 508.209 607.586 514.461 618.149 517.207C618.149 517.207 614.08 507.591 610.994 503.409" fill="#FFC22A"/>
<path d="M507.661 578.373C509.624 582.085 511.535 586.631 509.445 590.246C507.346 593.872 501.941 594.439 498.277 592.349C494.614 590.258 492.366 586.32 491.004 582.344C485.233 565.508 493.35 554.791 493.35 554.791C493.35 554.791 505.472 574.243 507.661 578.373Z" fill="#FFC22A"/>
<path d="M480.502 603.77C482.494 606.469 484.437 609.46 484.567 612.84C484.633 614.488 484.181 616.266 482.931 617.347C480.84 619.156 478.273 620.381 473.253 616.103C457.357 602.562 460.62 587.965 460.62 587.965C460.62 587.965 476.969 598.982 480.502 603.77" fill="#FFC22A"/>
<path d="M444.024 546.563C436.493 543.043 427.011 542.362 419.234 545.39C416.297 546.532 413.378 547.979 411.266 550.325C409.152 552.67 407.989 556.088 409.016 559.059C410.271 562.687 414.456 564.638 418.282 564.398C422.109 564.158 425.616 562.187 428.791 560.013C433.018 557.117 444.024 546.563 444.024 546.563Z" fill="#FFC22A"/>
<path d="M721.102 359.99C729.663 385.293 738.224 410.592 746.784 435.891C751.351 449.374 755.899 463.072 755.514 476.99C755.231 487.393 752.118 497.277 746.97 506.194C737.33 522.905 720.509 536.196 702.031 542.916C673.638 553.255 642.004 550.889 612.008 545.154C582.002 539.429 552.347 530.47 521.623 528.191C511.966 527.478 501.747 527.639 492.19 529.73C482.635 531.82 473.721 535.862 466.813 542.929C464.5 545.297 462.505 547.956 460.856 550.811C456.57 558.237 454.615 567.011 455.55 575.572C456.85 587.425 463.633 598.518 473.604 605.102C474.182 605.482 474.958 605.325 475.336 604.75C475.718 604.175 475.556 603.398 474.979 603.019C465.65 596.872 459.24 586.39 458.037 575.307C457.16 567.305 458.997 559.036 463.025 552.063C464.574 549.381 466.445 546.89 468.606 544.676C475.087 538.042 483.507 534.191 492.732 532.17C501.948 530.15 511.947 529.98 521.445 530.682C551.801 532.924 581.367 541.84 611.543 547.61C641.721 553.369 673.804 555.841 702.895 545.262C721.897 538.343 739.147 524.74 749.139 507.446C754.467 498.218 757.72 487.925 758.014 477.065C758.404 462.553 753.712 448.586 749.154 435.098C740.594 409.799 732.032 384.499 723.472 359.197C723.252 358.542 722.541 358.19 721.886 358.408C721.231 358.63 720.88 359.338 721.102 359.99" fill="#6F6F6F"/>
<path d="M498.923 577.729C497.514 571.629 495.081 565.981 494.441 560.148C493.801 554.417 495.119 548.188 498.185 542.883C501.671 536.855 507.356 532.029 515 530.291C515.672 530.137 516.103 529.466 515.965 528.789C515.823 528.113 515.165 527.689 514.492 527.839C506.111 529.74 499.824 535.084 496.041 541.646C492.706 547.427 491.27 554.161 491.969 560.468C492.686 566.797 495.179 572.53 496.499 578.334C496.654 579.006 497.321 579.416 497.989 579.249C498.66 579.083 499.077 578.404 498.923 577.729" fill="#6F6F6F"/>
<path d="M640.04 550.129C631.33 529.304 615.504 509.654 596.291 497.548C595.704 497.178 594.931 497.348 594.566 497.929C594.2 498.509 594.379 499.278 594.965 499.648C613.668 511.418 629.231 530.713 637.73 551.066C637.996 551.704 638.729 552.01 639.368 551.751C640.004 551.493 640.306 550.767 640.04 550.129" fill="#6F6F6F"/>
<path d="M685.151 548.845C683.94 554.949 681.676 560.793 678.569 566.174C669.234 582.356 652.269 594.302 633.67 596.547C632.98 596.631 632.488 597.26 632.573 597.952C632.659 598.641 633.289 599.133 633.98 599.049C653.455 596.678 671.025 584.277 680.755 567.436C683.991 561.83 686.357 555.731 687.626 549.338C687.761 548.657 687.316 547.993 686.634 547.855C685.95 547.719 685.287 548.162 685.152 548.843" fill="#6F6F6F"/>
<path d="M110.709 227.983C108.705 222.091 107.744 215.898 107.744 209.684C107.737 191.002 116.457 172.175 131.441 160.931C131.997 160.513 132.108 159.722 131.689 159.166C131.27 158.612 130.479 158.501 129.922 158.919C114.242 170.71 105.227 190.235 105.22 209.684C105.22 216.157 106.221 222.623 108.319 228.794C108.543 229.451 109.259 229.803 109.919 229.582C110.579 229.357 110.932 228.642 110.709 227.985" fill="#6F6F6F"/>
<path d="M190.721 532.718C179.272 528.33 165.904 529.243 155.159 535.157C151.601 537.115 148.346 539.572 145.095 542.024C141.097 545.04 137.106 548.051 132.566 550.126C123.924 554.09 113.608 554.26 104.837 550.57C96.064 546.88 88.9664 539.407 85.7424 530.453C83.2967 523.644 83.2174 515.541 87.43 509.663C89.7265 506.464 93.1244 504.158 96.7529 502.622C100.102 501.205 103.624 500.438 107.204 500.19C115.383 499.597 123.895 501.702 131.54 504.961C138.485 507.93 152.094 510.484 161.17 511.98C166.485 512.844 170.249 513.34 170.249 513.34C177.033 515.118 184.756 529.025 190.721 532.718" fill="#FFC22A"/>
<path d="M97.8472 527.503C120.944 522.515 147.379 518.814 170.26 524.208C170.56 524.279 170.859 524.094 170.93 523.795C171 523.495 170.815 523.196 170.516 523.125C147.337 517.669 120.771 521.421 97.6122 526.414C97.3118 526.48 97.1209 526.776 97.1852 527.076C97.2502 527.377 97.5466 527.567 97.8472 527.503Z" fill="#6E6E6E"/>
<path d="M166.726 515.232C146.885 496.934 142.311 495.238 140.155 488.566C137.407 480.064 131.06 474.169 128.152 465.72C125.245 457.272 121.267 448.818 114.372 443.136C112.193 441.339 109.3 439.762 106.586 441.628C105.497 442.375 104.779 443.569 104.481 444.855C103.726 448.102 105.136 451.088 106.51 453.921L111.101 463.393C112.594 466.472 108.803 469.521 106.202 467.296L106.136 467.239C103.971 465.358 102.495 462.823 101.114 460.31C98.1073 454.84 95.3118 449.169 91.2005 444.474C86.2256 438.793 78.8944 434.574 71.1376 436.414C68.3866 437.066 65.8792 438.607 64.095 440.798C59.1101 446.926 61.9634 454.116 66.6613 458.583C69.9676 461.726 74.1192 463.795 78.1162 465.995C87.8767 471.367 90.6506 480.862 97.7813 489.424C117.462 513.051 166.726 515.232 166.726 515.232" fill="#FFC22A"/>
<path d="M71.8183 445.205C86.0683 458.126 100.457 471.161 116.984 481.144C119.351 482.571 121.828 484.552 126.013 486.666C130.199 488.78 136.09 491.023 145.342 493.039C145.643 493.105 145.94 492.914 146.005 492.614C146.071 492.314 145.88 492.017 145.58 491.951C136.397 489.95 130.607 487.738 126.515 485.672C122.422 483.605 120.021 481.68 117.559 480.191C101.155 470.284 86.8153 457.303 72.5663 444.38C72.3386 444.174 71.9861 444.19 71.7802 444.419C71.5736 444.646 71.5903 444.998 71.8183 445.205Z" fill="#6E6E6E"/>
<rect x="118.236" y="186.713" width="464.997" height="338.9" rx="14.5" fill="white" stroke="black" stroke-width="11"/>
<path d="M112.736 201.213C112.736 190.167 121.691 181.213 132.736 181.213H562.053C573.098 181.213 582.053 190.167 582.053 201.213V226.307H112.736V201.213Z" fill="black"/>
<circle cx="141.129" cy="203.76" r="7.51574" fill="white"/>
<circle cx="162.006" cy="203.76" r="7.51574" fill="white"/>
<circle cx="182.883" cy="203.76" r="7.51574" fill="white"/>
<rect x="132.778" y="246.349" width="97.7047" height="264.721" rx="10" fill="#F1F1F1"/>
<rect x="471.822" y="246.349" width="95.1994" height="72.6522" rx="10" fill="#F1F1F1"/>
<rect x="364.096" y="246.349" width="96.0345" height="72.6522" rx="10" fill="#F1F1F1"/>
<rect x="257.205" y="246.349" width="95.1994" height="72.6522" rx="10" fill="#F1F1F1"/>
<circle cx="182.048" cy="285.598" r="27.5577" fill="white"/>
<rect x="257.205" y="339.879" width="25.0525" height="25.0525" rx="12.5262" fill="#F1F1F1"/>
<rect x="290.609" y="343.219" width="30.063" height="6.68066" rx="3.34033" fill="#F1F1F1"/>
<rect x="290.609" y="354.91" width="46.7646" height="6.68066" rx="3.34033" fill="#F1F1F1"/>
<rect x="257.205" y="369.942" width="136.954" height="6.68066" rx="3.34033" fill="#F1F1F1"/>
<rect x="257.205" y="381.633" width="136.954" height="6.68066" rx="3.34033" fill="#F1F1F1"/>
<rect x="257.205" y="393.324" width="136.954" height="6.68066" rx="3.34033" fill="#F1F1F1"/>
<rect x="257.205" y="405.015" width="136.954" height="6.68066" rx="3.34033" fill="#F1F1F1"/>
<rect x="257.205" y="426.727" width="25.0525" height="25.0525" rx="12.5262" fill="#F1F1F1"/>
<rect x="290.609" y="430.068" width="30.063" height="6.68066" rx="3.34033" fill="#F1F1F1"/>
<rect x="290.609" y="441.759" width="46.7646" height="6.68066" rx="3.34033" fill="#F1F1F1"/>
<rect x="257.205" y="456.79" width="136.954" height="6.68066" rx="3.34033" fill="#F1F1F1"/>
<rect x="257.205" y="468.481" width="136.954" height="6.68066" rx="3.34033" fill="#F1F1F1"/>
<rect x="257.205" y="480.173" width="136.954" height="6.68066" rx="3.34033" fill="#F1F1F1"/>
<rect x="257.205" y="491.864" width="136.954" height="6.68066" rx="3.34033" fill="#F1F1F1"/>
<circle cx="156.244" cy="331.611" r="6.76417" fill="white"/>
<rect x="166.39" y="328.906" width="40.585" height="5.41134" rx="2.70567" fill="white"/>
<circle cx="156.244" cy="357.499" r="6.76417" fill="white"/>
<rect x="166.39" y="354.793" width="40.585" height="5.41134" rx="2.70567" fill="white"/>
<circle cx="156.244" cy="383.386" r="6.76417" fill="white"/>
<rect x="166.39" y="380.681" width="40.585" height="5.41134" rx="2.70567" fill="white"/>
<circle cx="156.244" cy="409.274" r="6.76417" fill="white"/>
<rect x="166.39" y="406.568" width="40.585" height="5.41134" rx="2.70567" fill="white"/>
<circle cx="156.244" cy="435.162" r="6.76417" fill="white"/>
<rect x="166.39" y="432.456" width="40.585" height="5.41134" rx="2.70567" fill="white"/>
<circle cx="156.244" cy="461.049" r="6.76417" fill="white"/>
<rect x="166.39" y="458.344" width="40.585" height="5.41134" rx="2.70567" fill="white"/>
<circle cx="156.244" cy="486.937" r="6.76417" fill="white"/>
<rect x="166.39" y="484.231" width="40.585" height="5.41134" rx="2.70567" fill="white"/>
<rect x="412.531" y="339.879" width="154.49" height="66.8066" rx="10" fill="#F1F1F1"/>
<rect x="412.531" y="415.036" width="154.49" height="6.68066" rx="3.34033" fill="#F1F1F1"/>
<rect x="412.531" y="428.397" width="154.49" height="6.68066" rx="3.34033" fill="#F1F1F1"/>
<rect x="412.531" y="441.759" width="154.49" height="6.68066" rx="3.34033" fill="#F1F1F1"/>
<rect x="412.531" y="455.12" width="154.49" height="6.68066" rx="3.34033" fill="#F1F1F1"/>
<rect x="412.531" y="468.481" width="154.49" height="6.68066" rx="3.34033" fill="#F1F1F1"/>
<rect x="412.531" y="481.843" width="154.49" height="6.68066" rx="3.34033" fill="#F1F1F1"/>
<rect x="610.435" y="186.213" width="163.697" height="339.9" rx="25" fill="white" stroke="black" stroke-width="10"/>
<path d="M647.354 182.213H738.048V185.08C738.048 191.155 733.123 196.08 727.048 196.08H658.354C652.279 196.08 647.354 191.155 647.354 185.08V182.213Z" fill="black" stroke="black" stroke-width="2"/>
<rect x="618.796" y="220.462" width="25.0525" height="25.0525" rx="12.5262" fill="#F1F1F1"/>
<rect x="618.796" y="320.672" width="25.0525" height="25.0525" rx="12.5262" fill="#F1F1F1"/>
<rect x="618.796" y="420.882" width="25.0525" height="25.0525" rx="12.5262" fill="#F1F1F1"/>
<rect x="652.2" y="223.802" width="30.063" height="6.68066" rx="3.34033" fill="#F1F1F1"/>
<rect x="652.2" y="235.493" width="46.7646" height="6.68066" rx="3.34033" fill="#F1F1F1"/>
<rect x="652.2" y="324.012" width="30.063" height="6.68066" rx="3.34033" fill="#F1F1F1"/>
<rect x="652.2" y="335.703" width="46.7646" height="6.68066" rx="3.34033" fill="#F1F1F1"/>
<rect x="652.2" y="424.222" width="30.063" height="6.68066" rx="3.34033" fill="#F1F1F1"/>
<rect x="652.2" y="435.913" width="46.7646" height="6.68066" rx="3.34033" fill="#F1F1F1"/>
<rect x="618.796" y="249.69" width="146.975" height="54.2804" rx="10" fill="#F1F1F1"/>
<rect x="618.796" y="349.9" width="146.975" height="54.2804" rx="10" fill="#F1F1F1"/>
<rect x="618.796" y="450.11" width="146.975" height="54.2804" rx="10" fill="#F1F1F1"/>
</svg>
